<svg width="40" height="40" viewBox="0 0 40 40" fill="none" xmlns="http://www.w3.org/2000/svg">
<path d="M3.75 11.875C3.75 10.8395 4.58947 10 5.625 10H15.625C16.6605 10 17.5 10.8395 17.5 11.875V18.125C17.5 19.1605 16.6605 20 15.625 20H5.625C4.58947 20 3.75 19.1605 3.75 18.125V11.875Z" stroke="#0F172A" stroke-width="2" stroke-linecap="round" stroke-linejoin="round"/>
<path d="M23.75 14.375C23.75 13.3395 24.5895 12.5 25.625 12.5H34.375C35.4105 12.5 36.25 13.3395 36.25 14.375V28.125C36.25 29.1605 35.4105 30 34.375 30H25.625C24.5895 30 23.75 29.1605 23.75 28.125V14.375Z" stroke="#0F172A" stroke-width="2" stroke-linecap="round" stroke-linejoin="round"/>
<path d="M6.25 26.875C6.25 25.8395 7.08947 25 8.125 25H16.875C17.9105 25 18.75 25.8395 18.75 26.875V30.625C18.75 31.6605 17.9105 32.5 16.875 32.5H8.125C7.08947 32.5 6.25 31.6605 6.25 30.625V26.875Z" stroke="#0F172A" stroke-width="2" stroke-linecap="round" stroke-linejoin="round"/>
</svg>
